<?xml version="1.0" standalone="no"?>
<!DOCTYPE svg PUBLIC "-//W3C//DTD SVG 20010904//EN"
 "http://www.w3.org/TR/2001/REC-SVG-20010904/DTD/svg10.dtd">
<svg version="1.0" xmlns="http://www.w3.org/2000/svg"
 width="1200.000000pt" height="750.000000pt" viewBox="0 0 1200.000000 750.000000"
 preserveAspectRatio="xMidYMid meet">
<metadata>
Created by potrace 1.15, written by Peter Selinger 2001-2017
</metadata>
<g transform="translate(0.000000,750.000000) scale(0.100000,-0.100000)"
fill="#000000" stroke="none">
<path d="M0 3750 l0 -3750 1160 0 1160 0 0 33 c0 18 -5 38 -11 44 -16 16 -2
33 26 33 32 0 41 17 13 23 l-23 4 23 2 c12 0 22 6 22 12 0 11 -16 9 -53 -6
-13 -6 -16 -3 -11 9 4 10 1 16 -9 16 -9 0 -22 3 -30 6 -10 3 -17 -2 -20 -13
-4 -15 -5 -15 -6 3 0 12 -8 24 -16 28 -28 11 -16 29 15 22 17 -3 30 -1 30 4 0
6 -7 10 -15 10 -22 0 -20 56 3 70 16 11 16 11 -1 6 -10 -3 -21 -6 -23 -6 -2 0
-4 -13 -4 -30 0 -16 -4 -30 -10 -30 -5 0 -10 13 -10 29 0 16 -6 32 -12 34 -23
10 37 55 64 50 22 -4 25 -1 25 29 0 43 -21 63 -62 59 -18 -1 -36 2 -40 8 -4 7
4 11 20 11 14 0 37 7 50 16 33 22 93 21 109 -2 7 -9 18 -14 24 -10 24 14 122
25 152 16 17 -5 39 -6 48 -2 25 9 -20 20 -92 21 -33 1 -57 4 -53 7 12 12 210
5 218 -8 5 -8 11 -9 21 -1 16 13 378 25 378 12 0 -5 7 -9 15 -9 8 0 15 5 15
11 0 6 6 9 13 6 6 -2 11 -10 9 -17 -4 -18 8 -50 19 -50 5 0 17 9 26 20 10 11
24 20 33 20 9 0 33 9 55 20 31 16 51 19 95 14 30 -3 62 -6 70 -5 8 0 63 1 122
1 63 -1 109 4 113 10 4 7 -66 10 -217 10 -139 0 -229 4 -238 11 -12 8 -10 9 7
4 18 -5 25 -1 35 19 6 14 15 26 20 26 5 0 7 4 4 9 -7 11 28 21 77 21 27 0 37
4 37 16 0 10 -7 14 -22 13 -27 -4 -51 9 -43 22 4 5 -2 9 -12 9 -15 0 -16 2 -3
10 11 7 5 10 -22 10 -40 0 -74 -23 -104 -67 -14 -22 -14 -25 6 -41 l21 -17
-25 -24 c-26 -24 -31 -25 -196 -25 -105 -1 -173 3 -178 9 -8 11 -78 12 -89 1
-10 -10 -112 -7 -134 4 -10 6 -19 7 -19 2 0 -5 -57 -10 -127 -11 -126 -2 -126
-2 -103 17 16 13 20 21 12 26 -7 4 -12 2 -12 -3 0 -6 -14 -11 -30 -11 -23 0
-33 6 -40 25 -5 14 -12 25 -14 25 -3 0 -3 -7 0 -15 8 -20 -3 -19 -23 1 -11 11
-26 14 -49 9 -27 -5 -33 -3 -28 8 6 17 -50 67 -76 67 -10 0 -22 5 -26 11 -3 6
-15 9 -25 6 -10 -3 -22 -1 -25 4 -3 5 10 9 28 9 18 1 44 7 58 15 25 14 25 14
-15 15 -34 1 -37 2 -21 12 22 12 67 50 105 88 73 71 189 159 216 162 23 2 30
8 30 25 0 12 13 31 28 43 26 21 36 21 225 19 184 -2 197 -1 201 16 2 14 -1 16
-15 10 -28 -11 -374 -16 -374 -5 0 5 10 15 23 21 12 6 38 28 57 49 63 66 36
63 600 67 283 2 530 1 548 -2 36 -7 39 -13 17 -41 -13 -16 -14 -16 -9 -1 5 14
2 16 -12 10 -11 -3 -21 -9 -24 -12 -3 -4 -18 -12 -34 -19 -26 -12 -27 -14 -12
-25 16 -11 15 -14 -4 -35 l-22 -23 -356 3 c-196 1 -345 4 -329 6 36 5 35 19
-2 18 -19 -1 -32 -7 -34 -18 -6 -21 6 -25 65 -24 25 1 45 -1 43 -4 -5 -8 327
-6 340 2 15 8 285 10 285 2 0 -4 -11 -22 -26 -41 -35 -46 -18 -42 27 7 21 22
42 40 48 40 6 0 11 7 11 15 0 8 -4 15 -10 15 -5 0 -10 5 -10 11 0 8 5 7 16 -1
13 -11 16 -10 20 8 4 13 11 19 20 15 10 -4 12 0 8 11 -4 11 -1 16 10 16 9 0
16 8 16 18 0 9 12 25 25 35 24 17 55 18 553 13 290 -3 536 -5 547 -6 11 -1 34
1 50 4 17 3 76 8 133 12 93 6 102 6 96 -9 -3 -10 -10 -17 -15 -17 -5 0 -9 -6
-9 -13 0 -15 41 -37 66 -37 8 0 12 -5 9 -10 -3 -6 -23 -10 -43 -10 -24 0 -32
3 -24 9 11 7 10 9 -3 14 -10 4 -14 3 -10 -4 4 -6 -4 -9 -21 -7 -16 2 -29 -2
-32 -10 -3 -10 4 -13 24 -11 60 5 84 0 78 -16 -5 -12 -10 -13 -20 -4 -15 12
-41 9 -119 -14 l-50 -15 40 -2 c22 -1 199 -2 392 -3 310 0 355 2 371 16 11 11
35 16 72 15 47 0 52 -2 37 -13 -15 -11 -10 -14 39 -20 63 -8 74 -1 74 50 0 34
15 24 26 -18 5 -24 3 -29 -16 -34 -19 -5 -21 -11 -16 -42 3 -20 12 -41 21 -47
11 -8 15 -31 15 -85 0 -52 3 -69 10 -59 5 8 10 42 10 75 0 36 4 55 9 47 4 -7
6 31 3 87 l-5 100 154 3 c85 2 222 0 304 -5 l150 -10 93 31 c55 19 113 32 143
32 27 0 49 3 49 8 0 4 21 8 46 10 27 2 43 -1 40 -7 -4 -5 15 -9 44 -9 32 -1
56 -7 66 -16 8 -9 26 -16 40 -16 13 0 24 -6 25 -12 0 -7 5 -4 10 7 7 14 8 6 4
-29 -3 -28 -10 -53 -16 -57 -6 -3 -2 -8 10 -12 11 -3 25 -18 31 -34 20 -55 45
-101 52 -97 8 5 12 -17 9 -42 -1 -7 5 -14 14 -18 8 -3 15 -15 15 -26 0 -11 5
-20 10 -20 6 0 10 -8 10 -19 0 -10 11 -49 25 -86 23 -65 26 -98 5 -65 -8 12
-10 12 -10 2 0 -8 9 -16 20 -19 11 -3 20 -12 20 -19 0 -8 5 -14 11 -14 5 0 7
-4 4 -10 -3 -5 -2 -17 3 -26 8 -14 10 -11 14 15 3 22 1 31 -10 31 -8 0 -12 6
-9 14 3 8 1 17 -6 20 -9 3 -9 5 0 5 9 1 7 8 -5 21 -9 12 -17 33 -17 48 0 18
-5 26 -14 24 -9 -2 -12 4 -8 18 3 11 1 18 -4 14 -5 -3 -9 4 -9 16 0 28 -61
172 -80 188 -10 9 -11 11 -1 6 14 -7 14 -4 -6 58 -4 13 3 17 34 21 l38 4 -43
1 c-38 2 -45 6 -56 33 -8 18 -10 44 -7 63 6 29 10 31 51 31 28 1 88 -14 155
-38 109 -38 111 -39 220 -33 61 3 124 8 140 12 22 4 26 3 15 -5 -12 -9 -12
-11 2 -16 10 -4 22 -4 28 0 5 3 10 1 10 -6 0 -7 3 -9 6 -6 4 4 1 14 -7 23 -13
16 -11 17 13 12 15 -3 25 -2 23 2 -8 13 25 21 43 11 11 -6 24 -4 42 8 29 20
165 41 267 41 67 0 72 -2 114 -39 24 -21 51 -52 59 -67 8 -16 23 -35 33 -42 9
-7 17 -20 17 -29 0 -15 1 -15 13 1 12 16 14 15 36 -8 14 -15 19 -26 13 -26 -7
0 -12 -4 -12 -10 0 -5 6 -7 14 -4 9 3 22 -5 32 -21 l17 -26 18 28 c25 38 24
43 -9 43 -30 0 -72 29 -72 49 0 22 346 9 368 -14 4 -3 0 -10 -8 -15 -10 -7 6
-9 49 -7 54 2 60 3 38 11 -49 18 -28 26 48 20 49 -3 75 -2 75 5 0 11 528 15
556 4 20 -7 18 -23 -3 -24 -10 0 -2 -5 17 -11 40 -11 62 -27 55 -38 -3 -4 3
-7 13 -6 12 1 17 -7 18 -24 1 -44 3 -47 30 -47 19 0 24 4 19 16 -3 9 11 -1 30
-21 19 -21 40 -38 45 -38 6 0 10 -4 10 -10 0 -14 -7 -13 -35 6 -14 9 -25 23
-25 30 0 8 -4 14 -10 14 -19 0 -10 -42 10 -47 12 -3 28 -19 36 -35 11 -22 20
-27 35 -23 10 4 19 3 20 -2 7 -59 5 -183 -3 -183 -5 0 -8 6 -5 13 3 8 1 20 -3
27 -7 11 -11 11 -23 1 -12 -9 -16 -9 -20 1 -3 7 -6 3 -6 -10 -1 -13 3 -21 8
-17 5 3 12 1 16 -5 3 -6 -1 -13 -9 -16 -25 -10 -19 -24 12 -25 23 -2 24 -2 4
-6 -12 -2 -20 -8 -17 -13 3 -5 -11 -12 -32 -15 -21 -3 -47 -8 -58 -11 -19 -6
-130 -19 -229 -28 -31 -2 -44 -1 -35 5 10 6 7 9 -13 9 -15 0 -29 -4 -33 -9 -3
-6 -49 -11 -103 -11 -53 -1 -104 -2 -112 -3 -8 0 -26 3 -39 7 -16 6 -21 5 -17
-3 4 -6 0 -11 -9 -11 -9 0 -14 4 -10 9 3 5 1 12 -4 15 -5 3 -11 -1 -15 -9 -3
-10 -14 -13 -33 -10 -15 3 -52 7 -82 9 -35 3 -57 9 -63 20 -5 8 -15 13 -23 10
-9 -4 -18 1 -21 11 -5 11 -16 15 -40 13 -18 -1 -36 1 -40 5 -16 15 -22 6 -11
-18 13 -27 32 -33 40 -12 3 6 6 8 6 2 1 -27 -28 -44 -80 -48 -43 -3 -39 -4 20
-4 l74 0 21 -41 c12 -23 27 -40 35 -39 8 1 16 -4 18 -11 3 -7 1 -12 -4 -11 -4
1 -15 1 -23 -1 -11 -1 -9 -4 5 -10 14 -6 15 -9 5 -9 -9 -1 -20 3 -25 8 -6 5
-32 7 -60 4 l-50 -6 55 -13 c30 -7 69 -13 86 -14 39 0 84 -21 84 -39 0 -8 3
-11 7 -8 9 9 53 -33 53 -50 0 -7 4 -13 9 -13 12 0 91 -111 91 -127 0 -7 -9
-14 -20 -14 -33 -2 -38 -4 -46 -12 -4 -4 8 -7 26 -7 19 0 38 7 45 17 11 15 15
14 39 -12 29 -31 27 -48 -2 -22 -34 31 -31 18 4 -19 19 -20 34 -45 34 -55 0
-15 8 -19 41 -19 43 0 44 5 6 48 -11 12 -27 22 -34 22 -8 0 -11 5 -8 10 6 10
-33 65 -93 130 -18 19 -40 47 -50 62 -9 16 -20 28 -25 28 -4 0 -5 5 -2 10 4 6
23 7 46 4 26 -4 39 -3 39 5 0 6 -7 11 -16 11 -11 0 -14 6 -9 20 4 11 2 20 -4
20 -6 0 -11 7 -11 15 0 8 -6 15 -14 15 -8 0 -16 7 -20 15 -3 8 -13 15 -21 15
-31 0 -114 32 -119 46 -11 30 33 35 277 34 133 -1 312 -2 397 -2 103 -1 165
-6 185 -14 17 -7 26 -14 20 -15 -5 -1 3 -4 19 -8 32 -7 48 -31 21 -31 -15 0
-15 -3 -5 -15 10 -12 15 -13 20 -4 6 8 10 8 16 -2 4 -7 3 -14 -4 -17 -7 -2
-12 -13 -12 -24 0 -17 -5 -20 -43 -17 -43 4 -43 4 -44 -28 -1 -18 4 -33 10
-33 6 0 8 -3 5 -6 -6 -5 -73 9 -108 23 -25 9 -60 9 -60 0 0 -5 11 -7 25 -5 14
3 25 2 25 -2 0 -4 18 -13 40 -20 43 -14 56 -36 15 -26 -14 4 -25 2 -25 -4 0
-5 3 -10 8 -11 4 0 20 -3 36 -5 23 -4 27 -2 23 10 -4 9 -2 16 2 16 19 0 19
-30 0 -41 -22 -11 -23 -56 -1 -51 7 1 12 -8 12 -23 0 -18 -4 -23 -15 -19 -21
8 -19 -13 3 -25 14 -9 13 -10 -12 -11 -25 0 -28 3 -24 25 3 14 0 33 -7 42 -11
15 -13 10 -12 -35 0 -28 4 -52 9 -52 4 0 8 -5 8 -11 0 -8 -4 -8 -13 -2 -6 5
-23 6 -37 2 -16 -4 -19 -7 -7 -8 12 -1 17 -9 17 -31 l0 -30 1125 0 1125 0 0
3750 0 3750 -2527 0 -2528 0 3 -164 3 -164 -75 -7 c-42 -4 -92 -4 -111 -1
l-36 7 3 135 c2 81 7 134 13 133 6 0 12 10 15 22 5 21 13 24 70 27 36 2 67 6
69 8 2 2 -344 4 -769 4 -425 0 -771 -2 -768 -5 3 -3 45 -7 94 -10 l89 -5 0
-157 0 -158 -105 0 -105 0 0 168 0 167 -135 -2 c-128 -2 -130 -2 -32 -5 l102
-4 0 -154 c0 -85 -1 -158 -2 -162 -2 -5 -50 -8 -108 -8 l-105 0 0 168 1 167
-2528 0 -2528 0 0 -3750z m4140 3705 c5 19 8 -7 10 -75 1 -58 3 -129 4 -157
l3 -53 -38 0 c-33 0 -41 5 -54 30 -9 17 -21 31 -28 32 -31 3 -54 6 -74 7 -21
1 -23 6 -23 60 0 85 9 123 28 116 13 -5 13 -3 -1 13 -18 20 -23 42 -8 42 5 0
12 -7 15 -16 3 -8 10 -13 15 -9 5 3 12 1 16 -5 9 -15 25 -12 25 5 0 8 4 15 9
15 5 0 8 -6 7 -12 0 -7 4 -14 9 -16 6 -1 11 7 11 18 2 32 12 35 20 6 3 -14 12
-26 20 -26 17 0 18 17 2 23 -10 3 -9 8 2 22 14 17 15 16 19 -16 l4 -34 7 30z
m200 24 c-11 -8 -6 -9 23 -7 20 2 37 0 37 -4 0 -4 7 -8 15 -8 13 0 15 -23 15
-151 0 -134 -2 -150 -16 -145 -9 3 -56 6 -105 6 l-89 0 0 150 c0 167 -6 153
75 163 61 8 62 8 45 -4z m361 -3 c4 -4 7 -43 8 -85 1 -42 3 -109 4 -149 1 -39
-1 -73 -5 -75 -14 -4 -196 8 -202 14 -3 3 -6 52 -7 110 0 76 4 112 15 134 16
30 12 51 -4 25 -8 -12 -10 -10 -10 8 0 36 27 25 47 -18 9 -18 12 -20 12 -7 1
23 17 22 17 -2 0 -11 -4 -17 -8 -15 -9 6 -13 -5 -22 -51 -3 -16 -3 -24 0 -17
3 6 11 9 16 6 7 -4 8 -2 4 4 -5 8 1 11 16 9 12 -1 23 4 24 11 1 6 2 14 3 17 0
3 1 8 0 11 0 4 5 10 12 15 11 6 10 9 -4 15 -18 6 -24 44 -7 44 5 0 7 -7 4 -15
-8 -21 8 -19 28 4 16 19 48 23 59 7z m1129 -121 l0 -133 -44 5 c-44 5 -45 5
-48 -28 l-3 -34 -60 0 -60 0 -3 115 c-4 143 3 198 26 202 9 2 56 4 105 4 l87
2 0 -133z m197 63 l10 -73 2 73 c1 64 3 72 21 72 14 0 18 -5 14 -17 -5 -17 -5
-17 6 0 22 34 30 4 30 -117 0 -143 11 -132 -125 -131 l-90 0 0 90 c-1 50 1
106 3 126 4 35 6 37 34 32 20 -3 28 -1 23 6 -4 7 6 11 28 11 l34 0 10 -72z
m293 64 c0 -4 11 -8 25 -8 14 -1 25 3 25 10 0 6 4 5 9 -3 5 -8 10 -67 10 -133
l2 -118 -73 -1 c-40 0 -90 -1 -111 -2 l-37 -2 0 101 c0 56 3 114 6 130 5 28 7
29 75 31 38 0 69 -2 69 -5z m238 -17 c6 -30 20 -41 28 -21 4 10 2 21 -5 26 -9
5 -7 9 8 13 12 3 22 -1 26 -11 4 -11 9 -12 17 -4 28 28 35 1 37 -147 l2 -148
-100 -7 c-55 -4 -105 -5 -111 -1 -11 7 -14 241 -4 292 6 29 8 30 52 29 38 -1
47 -5 50 -21z m944 -95 c1 -63 3 -134 4 -157 l1 -43 -81 -1 c-44 -1 -93 -3
-108 -5 l-28 -3 0 158 c0 87 3 160 6 164 3 3 50 5 105 4 l99 -2 2 -115z m204
83 l25 -28 18 24 c16 21 19 21 24 6 4 -9 7 -77 7 -152 l0 -135 -99 4 c-55 1
-102 6 -106 9 -3 4 -3 72 1 151 l7 145 49 2 c43 2 53 -2 74 -26z m452 -89 c2
13 7 17 22 12 11 -3 29 -9 40 -12 13 -4 20 -2 20 6 0 10 3 10 15 0 12 -10 16
-9 21 4 8 22 21 20 29 -4 4 -11 10 -18 15 -15 4 3 10 -20 12 -50 3 -49 1 -55
-20 -60 -13 -3 -26 -4 -30 -1 -4 2 -40 1 -79 -3 l-73 -7 0 72 c0 39 3 93 8
120 l7 49 6 -65 c3 -36 6 -57 7 -46z m-278 66 c7 11 10 -2 12 -40 1 -52 2 -53
5 -11 4 38 7 42 25 38 29 -8 48 2 48 25 0 10 5 16 10 13 17 -11 11 -33 -11
-40 -20 -7 -20 -8 -3 -26 22 -24 37 -20 44 12 4 15 13 24 25 24 19 0 20 -9 23
-127 l3 -128 -108 0 -108 0 3 147 c3 108 6 141 13 123 8 -20 12 -22 19 -10z
m-2376 -339 c13 -6 63 -11 110 -12 81 -2 108 -11 69 -23 -24 -8 -592 0 -600 8
-14 14 13 17 178 18 96 1 183 5 194 9 11 4 21 8 22 8 1 1 13 -3 27 -8z m-1065
-898 l1 -73 30 0 30 0 0 191 c0 124 3 188 10 184 6 -3 10 -15 10 -25 0 -13 5
-17 15 -14 10 4 15 0 15 -13 0 -12 11 -25 26 -31 18 -9 24 -17 19 -31 -3 -11
-1 -22 5 -26 6 -4 9 -1 8 6 -2 6 3 14 10 16 6 3 12 -2 12 -10 0 -19 27 -30 33
-14 3 7 9 1 15 -13 9 -20 11 -21 11 -6 2 46 10 3 16 -79 4 -50 8 -96 11 -104
7 -22 -15 -31 -78 -31 -32 0 -58 -4 -58 -9 0 -15 22 -18 103 -16 l77 3 0 -32
c0 -18 -5 -37 -12 -44 -9 -9 -6 -12 15 -12 15 0 27 -4 27 -10 0 -5 -16 -10
-35 -10 l-35 0 3 -690 2 -690 30 0 30 0 -5 107 c-2 60 -6 86 -7 58 -5 -75 -12
-102 -24 -84 -12 20 -12 1166 1 1174 7 4 10 -70 10 -216 0 -122 3 -219 7 -216
3 4 5 123 5 264 -1 142 2 264 7 272 12 18 31 5 31 -21 0 -15 4 -18 18 -12 9 4
34 7 55 7 30 0 37 4 37 19 0 11 4 17 9 13 5 -3 9 -19 9 -35 -1 -17 2 -33 5
-37 4 -3 7 6 7 20 0 16 8 30 19 36 16 9 19 6 25 -21 3 -17 6 -325 6 -685 1
-507 3 -653 13 -654 7 -1 1 -5 -13 -9 -24 -8 -23 -8 8 -9 17 -1 32 -5 32 -10
0 -6 -8 -10 -17 -10 -10 1 -28 -2 -40 -6 -19 -6 -23 -4 -24 16 0 22 -1 23 -8
4 -6 -16 -2 -24 21 -37 16 -10 36 -18 46 -18 15 0 15 -2 2 -10 -12 -8 -10 -10
8 -10 13 0 21 -4 18 -8 -3 -4 -28 -8 -55 -7 -45 1 -51 -1 -51 -19 0 -33 -14
-8 -14 27 -1 22 -6 33 -19 35 -25 5 -49 -17 -42 -39 4 -11 2 -19 -2 -19 -15 0
-33 23 -33 42 0 10 -5 18 -11 18 -6 0 -8 -9 -4 -20 5 -17 2 -20 -22 -21 -15 0
-44 -2 -63 -4 -19 -2 -29 -1 -22 2 18 7 15 21 -5 26 -11 2 -9 3 4 2 18 -2 21
3 21 27 -1 16 -7 28 -15 28 -7 0 -13 -4 -13 -10 0 -5 -10 -10 -22 -11 -22 0
-22 -1 -3 -9 13 -6 -2 -8 -47 -7 -38 1 -68 5 -68 10 0 4 10 7 22 7 12 0 19 3
15 6 -9 10 -59 -5 -52 -16 3 -5 1 -11 -5 -15 -14 -9 -12 -26 3 -23 6 1 22 -1
34 -6 13 -4 31 -3 40 3 15 9 14 11 -12 12 -21 1 -24 3 -9 6 11 2 33 -3 50 -12
35 -18 46 -17 -191 -21 -123 -2 -194 1 -202 8 -7 6 -13 6 -13 1 0 -5 -8 -9
-19 -9 -11 0 -17 5 -14 13 3 7 -2 13 -12 13 -9 0 -13 -4 -10 -10 3 -5 -1 -10
-9 -10 -8 0 -18 5 -21 10 -3 6 -23 10 -43 9 -20 0 -31 -3 -24 -6 6 -2 10 -9 6
-14 -6 -11 -48 -12 -58 -1 -4 4 -24 12 -44 18 l-37 12 34 1 c25 1 32 5 27 16
-3 9 0 15 10 15 8 0 13 4 9 10 -3 5 -12 7 -20 3 -8 -3 -15 0 -15 6 0 6 -5 11
-11 11 -8 0 -8 -5 1 -15 10 -13 9 -15 -11 -15 -19 0 -21 -2 -9 -10 13 -8 12
-10 -2 -10 -10 0 -18 -4 -18 -10 0 -5 -14 -10 -30 -10 -17 0 -29 -5 -28 -11 2
-6 -7 -12 -19 -14 -14 -1 -23 4 -23 12 0 7 -11 13 -25 13 -14 0 -25 -4 -25
-10 0 -5 -4 -10 -10 -10 -14 0 -12 27 3 34 6 3 -8 3 -33 0 l-45 -6 24 21 24
21 -46 0 c-43 0 -46 1 -45 28 0 15 -1 65 -2 112 l-2 85 -9 -60 c-13 -87 -17
-89 -18 -8 -1 43 -6 75 -13 79 -7 5 -9 2 -6 -7 3 -8 3 -53 -1 -99 -6 -81 -7
-85 -28 -82 -13 2 -23 -2 -23 -7 0 -6 -5 -11 -11 -11 -5 0 -7 5 -4 11 9 13
-71 11 -146 -4 -43 -8 -56 -14 -51 -25 3 -10 0 -13 -9 -10 -8 3 -13 10 -12 16
5 22 -27 31 -118 34 l-94 3 -7 300 c-8 337 -14 427 -16 253 -2 -136 -19 -160
-25 -35 -1 45 -4 -52 -5 -215 l-2 -298 -110 0 -110 0 0 88 c-1 48 -3 224 -6
391 -6 282 -1 421 14 407 3 -3 16 1 29 9 13 9 37 18 53 20 16 2 37 8 46 13 16
9 15 10 -5 17 -25 8 -19 25 10 25 20 0 25 28 13 87 -6 28 -8 30 -66 31 -34 1
-66 6 -73 12 -6 5 -15 7 -18 3 -4 -3 -7 34 -7 83 1 82 2 87 15 64 l14 -25 2
30 c1 17 2 35 4 40 1 6 3 17 4 25 1 13 2 13 11 0 8 -13 11 -12 16 6 5 18 16
22 71 28 75 8 82 3 84 -54 l1 -35 13 35 c7 19 14 28 14 20 1 -13 2 -13 11 0
17 26 12 50 -10 50 -11 0 -20 4 -20 10 0 9 22 17 65 23 11 1 26 6 33 11 7 4
25 5 40 2 15 -3 34 -2 42 4 11 7 7 10 -17 10 -41 0 -42 11 -2 44 27 23 29 28
15 41 -9 9 -17 11 -21 5 -3 -5 -28 -10 -56 -10 -42 0 -49 3 -49 20 0 11 5 20
11 20 7 0 18 8 25 18 13 16 13 16 14 0 0 -11 8 -18 20 -18 15 0 20 7 20 25 0
14 4 25 8 25 4 0 13 12 20 28 21 46 38 72 45 66 3 -3 3 -13 0 -21 -4 -11 -1
-14 8 -11 8 3 16 25 20 54 4 31 6 0 7 -83 l2 -133 35 0 35 0 1 83 c0 71 15
188 18 148 0 -8 4 -11 8 -8 3 4 12 2 20 -4 10 -9 13 -8 13 0 0 8 8 10 20 6 12
-4 20 -2 20 5 0 7 6 10 13 7 18 -7 41 29 24 36 -7 3 -4 6 6 6 9 1 17 -6 17
-14 0 -8 5 -15 11 -15 6 0 9 7 5 15 -3 9 0 15 9 15 22 0 28 -37 28 -163 l-1
-118 31 3 32 3 0 85 c1 153 3 168 25 175 11 4 18 11 14 16 -3 6 -12 8 -20 5
-10 -4 -14 2 -13 17 0 12 3 17 5 10 4 -7 14 -9 33 -3 16 4 40 6 54 3 15 -3 35
2 49 11 33 23 38 20 39 -21 1 -33 2 -34 8 -13 6 22 8 23 14 7 11 -28 9 -37 -8
-37 -8 0 -15 -4 -15 -10 0 -5 7 -7 16 -3 13 5 15 -10 13 -118 l-1 -124 29 -3
30 -3 7 177 c6 173 10 200 24 178 12 -19 37 -22 55 -6 15 14 21 14 40 3 15
-10 22 -10 25 -2 2 6 15 11 28 11 17 0 24 -6 24 -20 0 -11 5 -20 10 -20 6 0
10 -60 10 -160 l0 -160 30 0 30 0 0 146 c0 126 2 145 15 140 11 -4 15 2 15 24
0 17 5 30 11 30 7 0 9 -11 5 -30 -3 -19 -2 -29 4 -25 6 3 10 12 10 20 0 18 29
47 41 40 5 -4 9 -1 9 6 0 7 2 10 5 7 3 -3 1 -17 -4 -32 -8 -20 -8 -26 4 -26 7
0 16 -8 18 -17 3 -10 5 -3 6 15 1 41 17 42 26 0 l7 -32 14 25 c7 13 14 44 15
69 3 49 16 -171 18 -287z m3471 257 c5 0 11 8 14 18 3 9 4 3 2 -15 -3 -34 7
-43 50 -43 14 0 22 4 19 10 -3 6 -15 10 -26 10 -25 0 -25 26 0 33 11 3 22 2
26 -1 10 -11 46 -12 40 -2 -3 5 -3 15 1 22 15 23 21 -37 22 -198 l1 -159 28 0
28 0 6 163 c4 90 10 166 13 169 3 4 6 -1 6 -10 0 -17 40 -33 62 -24 7 3 1 6
-14 6 -20 1 -28 6 -28 19 0 10 3 13 8 6 4 -6 26 -14 50 -17 50 -6 50 2 0 12
l-33 8 37 4 c21 3 34 1 31 -5 -4 -5 5 -6 21 -2 26 6 37 -8 14 -17 -7 -3 -3 -6
10 -6 14 -1 23 5 23 17 4 49 15 -80 17 -193 l1 -130 28 0 28 0 3 158 3 158 35
-7 c26 -5 39 -3 45 7 7 12 9 11 9 -1 0 -9 14 -28 32 -44 30 -26 33 -27 45 -10
10 14 13 14 13 3 1 -10 5 -9 15 5 13 18 15 6 15 -116 0 -75 2 -143 5 -150 4
-10 16 -13 35 -10 l30 4 1 132 c1 119 2 128 14 101 l14 -30 1 44 c0 24 3 41 8
37 4 -4 7 -21 7 -37 0 -34 17 -39 27 -7 4 17 6 11 8 -22 2 -42 2 -44 13 -20 7
14 18 26 25 27 15 4 16 -9 2 -23 -12 -12 -3 -44 11 -44 5 0 9 6 9 14 0 7 7 19
15 26 12 10 15 10 15 -2 0 -7 9 -21 20 -31 21 -17 27 -37 11 -37 -4 0 -5 -19
0 -42 16 -82 13 -88 -29 -88 -21 0 -47 -7 -58 -15 -19 -14 -19 -14 0 -15 11 0
27 -7 37 -16 16 -15 17 -14 12 5 -4 15 -1 21 11 21 9 0 16 -6 16 -14 0 -8 5
-18 12 -22 8 -5 9 -2 5 9 -3 9 -2 19 3 22 6 4 10 -4 10 -17 0 -27 29 -34 63
-16 17 9 19 8 14 -6 -4 -11 -1 -16 10 -16 23 0 83 -23 83 -31 0 -4 -12 -10
-27 -12 -21 -3 -18 -4 12 -6 22 0 57 -4 78 -7 l38 -7 -3 -136 c-2 -100 -6
-136 -15 -137 -7 -1 -17 -2 -23 -3 -5 0 -10 -14 -10 -30 0 -16 -4 -41 -10 -55
-13 -34 -3 -56 25 -56 19 0 23 -7 28 -41 6 -48 -1 -737 -9 -786 l-5 -33 -104
0 -105 0 -1 33 c-1 17 -5 91 -8 162 l-8 130 -2 -100 c-4 -128 -17 -84 -22 70
l-2 110 -8 -140 c-3 -77 -7 -168 -8 -202 l-1 -63 -110 0 -110 0 -1 113 c-1 71
-4 103 -9 87 -4 -14 -8 -40 -9 -57 -1 -18 -5 -33 -11 -33 -5 0 -11 37 -13 83
-2 60 -3 47 -5 -50 -1 -72 -6 -134 -10 -137 -7 -4 -172 -10 -209 -7 -10 1 -13
34 -15 124 l-1 122 -6 -92 c-6 -90 -21 -141 -21 -70 0 20 -4 39 -10 42 -6 4
-10 -18 -10 -59 0 -56 -3 -66 -17 -67 -105 -8 -193 -6 -199 3 -4 6 -10 47 -14
92 -7 74 -7 76 -9 24 -2 -86 -21 -83 -22 4 l-2 73 -7 -93 c-5 -51 -11 -96 -15
-100 -7 -8 -183 -11 -202 -4 -9 3 -14 39 -15 126 -2 99 -3 106 -5 39 -3 -63
-7 -83 -18 -83 -10 0 -15 17 -18 63 -3 61 -3 61 -6 -18 -5 -133 1 -127 -119
-129 l-102 -2 -6 31 c-3 17 -4 212 -2 433 l3 402 -29 0 c-22 0 -27 -4 -22 -16
3 -9 6 -22 6 -30 0 -9 4 -13 9 -10 17 11 21 -39 21 -255 0 -274 -11 -511 -21
-454 -4 22 -5 57 -2 77 3 21 2 45 -3 55 -6 12 -11 -26 -14 -107 l-5 -125 -102
1 c-57 0 -105 3 -108 6 -9 9 -6 1261 4 1271 4 4 27 10 50 11 23 2 45 6 48 10
4 4 6 30 5 57 -2 38 1 48 10 42 7 -4 27 -8 43 -9 23 0 31 4 32 17 2 21 -29 29
-109 28 -70 -1 -78 4 -77 44 0 27 2 29 9 12 5 -11 9 -17 11 -12 15 61 22 77
31 77 6 0 8 10 5 22 -3 12 -1 30 5 42 11 20 11 20 19 -2 11 -30 28 -28 26 4
-1 15 4 29 11 31 6 3 12 -2 12 -11 0 -9 3 -16 6 -16 12 0 34 29 35 47 0 13 2
14 6 4 4 -10 10 -5 19 15 11 25 12 10 13 -118 1 -88 5 -149 11 -153 6 -4 8
-12 4 -18 -3 -7 0 -5 8 4 7 8 21 18 31 22 15 6 17 24 19 174 0 106 4 151 8
123 4 -25 8 -36 8 -25 2 17 9 20 52 20 27 0 50 4 50 8 0 5 6 7 13 4 6 -2 17 3
24 12 10 14 13 12 22 -12 6 -16 15 -25 21 -22 6 4 10 -44 10 -138 l0 -145 25
-4 c13 -3 27 -3 30 0 3 3 5 51 5 106 0 124 8 176 26 176 8 0 14 5 14 10 0 6 7
10 15 10 19 0 20 19 1 26 -9 3 -12 13 -8 27 l7 22 3 -22 c2 -13 7 -23 12 -23z
m-683 -1128 c-3 -337 -8 -616 -11 -619 -10 -10 -18 5 -18 32 0 14 -4 25 -9 25
-5 0 -9 -13 -9 -28 0 -24 -4 -28 -22 -26 -13 1 -26 3 -30 3 -5 1 -8 5 -8 11 0
5 3 9 8 9 29 -5 42 3 42 25 0 30 -9 56 -20 56 -5 0 -6 -16 -3 -35 3 -20 2 -35
-3 -34 -23 4 -34 -3 -34 -21 l0 -20 -20 20 c-23 23 -25 36 -4 32 22 -4 17 15
-6 21 -11 3 -20 11 -19 19 0 10 2 10 6 1 11 -29 73 2 73 36 0 14 -2 14 -10 1
-5 -8 -10 -10 -10 -5 0 6 5 17 10 25 9 13 12 13 25 -4 13 -18 35 -15 35 5 0 6
-4 8 -10 4 -11 -7 -49 13 -66 34 -6 8 -16 11 -23 7 -7 -5 -18 0 -26 10 -13 17
-15 9 -16 -71 -1 -49 -3 -94 -4 -100 -2 -5 -3 -16 -4 -22 0 -7 -10 -13 -21
-13 -20 0 -20 7 -20 523 0 287 3 572 7 634 6 104 7 111 24 102 13 -7 19 -24
21 -64 2 -30 7 -55 12 -54 5 0 13 -5 17 -13 5 -8 9 -9 9 -2 0 7 16 15 35 18
28 6 35 11 35 30 0 13 7 29 15 36 8 7 15 20 15 29 0 9 5 22 12 29 10 10 14 8
21 -10 5 -13 6 -299 4 -636z m2038 645 c15 -12 18 -30 19 -130 1 -108 -1 -118
-21 -139 -12 -12 -26 -19 -29 -15 -20 19 -15 297 5 297 4 0 15 -6 26 -13z
m-4079 -8 l81 2 6 -77 c4 -42 7 -339 7 -660 0 -516 -2 -584 -16 -598 -10 -11
-35 -16 -77 -17 -34 0 -77 -2 -94 -5 l-33 -4 -2 213 c-1 172 -1 685 2 1085 0
72 1 73 23 66 12 -4 58 -6 103 -5z m1755 -119 c4 -392 5 -986 1 -1058 l-4 -83
-106 3 -107 3 -2 415 c-2 228 0 510 5 625 l7 210 75 5 c41 3 87 6 102 5 l28 0
1 -125z m-1421 106 c0 -6 4 -5 9 3 19 30 22 -64 24 -649 l2 -595 -104 -3 c-77
-2 -107 1 -113 10 -9 15 -11 795 -1 1059 l6 186 89 0 c54 -1 88 -5 88 -11z
m119 -8 c5 -15 4 -26 -3 -30 -7 -5 -3 -8 9 -9 11 0 32 -2 48 -4 15 -2 25 0 22
6 -6 9 0 11 48 13 22 1 27 -3 28 -24 1 -20 3 -18 9 10 7 35 7 35 9 5 1 -22 4
-26 10 -16 6 9 10 -65 11 -190 2 -240 7 -379 15 -387 3 -3 5 55 6 129 0 74 4
154 8 179 8 43 11 4 15 -217 1 -17 4 -35 9 -39 4 -4 7 58 7 138 0 80 3 206 6
280 7 131 8 134 25 117 10 -10 25 -16 34 -13 9 4 21 -1 29 -11 12 -16 38 -20
89 -14 12 2 17 12 19 38 1 20 4 2 8 -39 4 -41 8 -319 9 -617 l1 -543 -110 0
-110 0 -1 163 c-2 123 -4 148 -9 102 -4 -33 -9 -94 -10 -135 l-3 -75 -7 50
c-5 28 -9 86 -9 129 -1 44 -3 77 -6 75 -5 -6 -13 -126 -14 -231 l-1 -78 -110
0 -110 0 0 488 c0 444 7 772 17 772 2 0 7 -10 12 -22z m1024 -47 c8 -96 9
-1083 1 -1141 l-7 -50 -102 0 -103 0 -7 76 c-10 113 5 1088 18 1095 5 4 7 14
4 22 -4 11 0 13 14 10 10 -3 19 -1 19 5 0 5 21 13 48 17 37 6 43 9 27 15 -19
7 -7 10 71 16 7 0 14 -25 17 -65z m-275 -670 l-3 -516 -107 -3 -108 -3 0 133
c0 73 -5 140 -10 148 -7 10 -10 -11 -10 -70 0 -47 -5 -92 -10 -100 -7 -10 -10
20 -10 95 -2 595 0 727 9 742 11 19 16 -165 12 -427 -1 -69 2 -145 7 -170 5
-29 9 95 11 340 2 212 4 396 6 410 2 14 4 39 4 55 1 23 3 27 11 15 9 -13 11
-13 20 0 7 11 10 5 11 -25 1 -22 3 -32 6 -22 5 18 23 24 23 7 0 -5 5 -10 10
-10 6 0 10 14 10 30 0 31 16 41 26 15 4 -8 10 -13 14 -10 5 3 11 -4 15 -14 6
-19 7 -19 26 -3 10 9 20 28 20 42 1 14 6 -13 10 -59 5 -46 8 -316 7 -600z
m863 -414 c-11 -39 -14 848 -3 973 4 52 8 -115 10 -428 1 -291 -2 -527 -7
-545z m-2212 473 c3 -500 3 -492 2 -565 -1 -43 -4 -56 -11 -45 -6 9 -9 225 -8
575 1 308 5 533 8 500 4 -33 8 -242 9 -465z m279 -115 c1 -389 -10 -526 -21
-290 -6 118 -4 537 3 775 l3 95 7 -100 c4 -55 8 -271 8 -480z m1111 78 c1
-250 -2 -404 -9 -413 -10 -16 -10 -12 -12 280 -1 343 3 541 10 536 5 -3 10
-184 11 -403z m-831 -48 c0 -187 -3 -367 -7 -400 l-7 -60 -6 95 c-10 128 -10
682 -1 745 l7 50 7 -45 c4 -25 7 -198 7 -385z m3662 369 c0 -8 4 -13 9 -10 5
4 12 -28 16 -69 8 -84 -1 -751 -10 -766 -4 -5 -17 -9 -30 -9 -20 0 -25 7 -31
37 -11 56 4 791 16 814 13 23 30 25 30 3z m-6474 -618 l-1 -319 -22 -3 c-21
-4 -27 3 -21 24 1 4 9 6 16 4 8 -2 12 2 10 10 -3 7 -10 13 -16 13 -19 0 -23
11 -26 75 -3 56 -1 61 16 57 11 -3 18 0 18 8 0 7 3 20 6 28 3 8 -1 17 -9 20
-10 4 -13 -1 -9 -20 3 -18 1 -24 -7 -19 -6 4 -11 34 -11 73 0 51 4 69 17 79
10 7 14 16 10 20 -4 5 -13 2 -18 -6 -8 -11 -9 -8 -6 14 3 16 0 42 -5 58 -7 20
-7 32 1 42 6 7 9 21 5 30 -3 9 -1 16 4 16 6 0 13 -12 15 -27 3 -20 4 -15 6 15
0 23 -3 42 -8 42 -13 0 -21 27 -15 45 4 8 10 12 15 9 5 -3 10 3 10 13 3 43 -2
156 -7 164 -3 5 0 9 6 9 6 0 10 6 9 13 -1 6 0 23 2 37 7 63 16 -236 15 -524z
m-633 280 c63 -26 72 -52 75 -235 4 -178 0 -196 -48 -224 -40 -24 -42 -21 -10
13 36 38 36 42 30 228 l-5 154 -33 29 c-34 31 -71 37 -118 19 -23 -9 -25 -9
-15 4 7 8 29 17 49 19 20 2 38 4 40 5 1 1 17 -4 35 -12z m7583 -122 c-3 -9 -6
-99 -6 -200 l0 -184 -130 0 -130 0 0 193 c0 107 3 197 7 200 3 4 65 7 136 7
114 0 128 -2 123 -16z m-3478 -631 c-19 -5 -25 -23 -8 -23 16 0 12 -22 -7 -35
-19 -14 -9 -37 12 -28 13 4 15 -24 15 -205 l0 -210 33 -31 c34 -33 46 -81 27
-111 -9 -15 -9 -16 -25 35 -12 40 -79 1 -69 -41 5 -20 3 -23 -11 -18 -34 13
-46 85 -19 115 14 15 16 51 15 258 -1 151 2 242 8 245 7 5 7 15 1 31 -9 23 -7
25 18 24 17 -1 20 -3 10 -6z m-2239 -18 c16 -5 21 -4 17 4 -4 6 -1 11 8 11 8
0 17 -4 20 -8 3 -5 26 -9 53 -11 26 -1 48 -3 49 -4 4 -4 6 -215 5 -499 -1
-242 -3 -277 -16 -272 -8 4 -15 2 -15 -4 0 -6 6 -13 13 -15 6 -3 -12 -6 -40
-6 -31 -1 -53 3 -53 10 0 5 -5 7 -10 4 -6 -4 -17 -2 -24 5 -11 8 -16 5 -25
-17 -8 -20 -10 -22 -7 -5 2 12 0 22 -5 22 -5 0 -9 -6 -10 -12 -1 -7 -5 3 -9
22 -7 29 -11 211 -12 665 -1 118 0 127 20 121 9 -2 28 -8 41 -11z m431 -418
l0 -408 -104 2 -104 1 -4 92 c-2 50 -5 231 -7 402 -2 251 0 314 11 320 7 5 50
9 96 10 46 1 86 4 89 8 19 19 23 -55 23 -427z m-673 398 c10 -16 12 -17 13 -4
0 14 9 16 43 14 23 -2 45 1 48 7 11 18 20 -181 18 -414 -2 -271 -8 -388 -21
-388 -5 0 -7 4 -3 9 3 5 1 12 -5 16 -5 3 -10 1 -10 -6 0 -7 -3 -9 -6 -6 -4 3
-15 2 -25 -4 -14 -7 -26 -5 -44 7 -14 9 -25 12 -25 8 0 -5 -5 -2 -10 6 -8 13
-10 12 -10 -2 0 -29 -20 -20 -21 10 -1 20 -2 22 -6 7 -22 -90 -31 38 -33 460
l-1 301 43 -1 c32 0 46 -5 55 -20z m947 -24 c8 -59 8 -608 0 -704 l-7 -77 -97
0 c-94 0 -98 1 -104 23 -5 20 -7 294 -6 689 l0 117 104 -2 104 -2 6 -44z m88
-249 c-1 -152 -6 -329 -10 -392 -6 -99 -9 -65 -16 241 -8 361 -4 461 18 439 8
-8 10 -93 8 -288z m188 -134 c-1 -281 -4 -427 -10 -417 -22 37 -30 176 -30
491 -1 323 3 358 31 358 5 0 9 -191 9 -432z m177 418 c89 -8 88 -5 85 -260 -1
-135 -6 -222 -12 -224 -6 -2 -10 -34 -10 -72 0 -39 -5 -70 -11 -72 -5 -2 -16
-39 -22 -83 -14 -87 -58 -174 -89 -175 -13 0 -18 -14 -24 -70 -4 -39 -8 -69
-11 -67 -13 14 -32 990 -19 1022 3 10 15 13 33 10 15 -2 52 -6 80 -9z m-1735
-11 c9 4 19 2 23 -4 9 -16 25 -13 25 4 0 18 -1 18 37 5 20 -7 38 -7 55 -1 22
8 27 7 32 -12 3 -12 5 -186 5 -387 -1 -318 -2 -361 -14 -335 -8 17 -14 23 -15
14 0 -23 -26 -44 -35 -29 -5 8 -11 8 -19 1 -17 -14 -26 -4 -26 27 0 24 -1 24
-19 8 -19 -18 -20 -17 -14 40 5 43 3 55 -6 50 -6 -4 -10 -15 -7 -24 3 -10 -2
-30 -10 -47 -8 -16 -12 -22 -9 -12 3 10 -1 28 -9 39 -14 20 -14 20 -18 -3 -2
-13 -7 105 -11 263 -7 274 -2 433 13 408 4 -6 14 -8 22 -5z m-98 -124 c3 -69
4 -175 1 -236 -2 -60 -5 -168 -5 -240 l-1 -130 -21 55 c-17 45 -22 51 -29 35
-7 -18 -8 -18 -8 -2 -1 25 -24 46 -47 44 -12 -1 -18 3 -15 13 13 52 13 55 2
40 -11 -16 -12 -15 -30 15 -11 18 -11 18 -5 -5 5 -20 4 -23 -7 -13 -7 7 -16
32 -20 55 l-6 43 -2 -38 c0 -21 -4 -36 -9 -34 -7 5 -16 497 -8 497 2 0 12 -3
20 -6 13 -5 14 -9 5 -20 -13 -15 -9 -17 15 -8 9 3 16 15 16 26 0 17 3 18 14 9
11 -10 17 -8 26 6 8 13 13 14 16 6 7 -17 31 -16 37 1 3 7 16 14 30 14 24 0 25
-1 31 -127z m3886 -34 c0 -161 0 -164 25 -187 25 -24 33 -54 16 -64 -5 -3 -12
1 -15 10 -9 24 -50 14 -54 -14 -3 -19 -6 -21 -18 -11 -16 13 -19 65 -4 74 6 4
10 73 10 175 0 166 2 176 33 179 4 1 7 -72 7 -162z m190 13 c0 -91 4 -150 10
-150 16 0 41 -46 34 -64 -6 -15 -7 -15 -18 0 -17 23 -51 14 -50 -14 1 -29 -10
-28 -24 4 -9 19 -9 30 0 47 8 14 12 71 13 162 0 77 4 146 8 153 21 32 27 3 27
-138z m-4352 -175 c0 -99 -3 -189 -8 -200 -7 -16 -9 -16 -9 -4 -1 12 -15 19
-48 24 -38 6 -44 9 -28 16 11 4 16 8 10 9 -5 1 1 6 15 10 l25 8 -25 1 c-15 1
-31 -4 -37 -10 -8 -8 -10 0 -6 32 6 39 4 43 -9 31 -13 -10 -19 -10 -34 5 -17
17 -17 18 14 21 38 4 41 17 7 44 -30 24 -32 38 -5 38 17 0 20 7 20 41 0 33 -3
40 -15 35 -14 -5 -13 -2 0 24 19 37 40 40 31 5 -5 -18 -2 -25 7 -25 10 0 14
15 14 55 0 31 5 61 11 67 9 9 12 6 12 -15 0 -17 5 -27 14 -27 8 0 17 -10 19
-22 2 -13 6 15 7 62 l3 85 7 -65 c4 -36 8 -146 8 -245z m3773 126 l-2 -169 31
-35 c29 -33 40 -80 21 -91 -5 -3 -11 4 -14 15 -4 16 -12 20 -34 17 -23 -2 -28
-8 -28 -30 1 -33 -3 -34 -21 -10 -18 22 -17 62 1 86 11 15 13 45 10 141 -4
103 -3 124 10 129 8 3 15 11 15 17 0 8 -5 8 -16 -1 -13 -12 -14 -8 -8 41 6 48
20 76 33 64 2 -3 3 -81 2 -174z m-191 -17 l0 -186 33 -31 c23 -23 31 -39 29
-57 -5 -34 -22 -51 -22 -21 0 19 -4 22 -32 19 -30 -3 -33 -6 -32 -35 2 -29 0
-31 -17 -20 -27 17 -35 69 -14 101 14 21 17 52 17 188 0 113 3 165 11 171 9 7
9 10 0 13 -10 4 -10 10 0 25 6 10 15 19 19 19 5 0 8 -84 8 -186z m-192 -26 l2
-197 29 -20 c33 -24 45 -59 32 -93 l-9 -23 -11 28 c-7 19 -18 27 -35 27 -30 0
-42 -16 -37 -50 3 -25 3 -25 -18 -6 -25 23 -28 72 -5 105 13 18 16 44 13 134
-1 62 -2 154 -1 205 2 83 4 93 20 90 15 -3 17 -22 20 -200z m2668 -233 c13
-22 23 -52 24 -67 l0 -28 -617 0 -617 0 21 21 c21 21 25 21 565 23 l543 1 -3
37 c-4 48 4 60 36 56 18 -2 32 -15 48 -43z m-596 -245 l0 -29 -311 -3 c-170
-2 -319 0 -330 4 -10 4 -19 15 -19 25 0 17 19 18 320 15 289 -3 320 -2 320 13
0 9 5 13 10 10 6 -3 10 -19 10 -35z m-892 -5 c-3 -20 -13 -20 -473 -25 -452
-5 -1223 2 -1140 9 39 4 39 4 8 8 -18 2 -33 8 -33 13 0 13 171 15 968 15 667
0 673 0 670 -20z m-3800 -128 c6 -5 12 -4 12 1 0 12 62 13 76 1 7 -6 21 -6 38
1 33 12 388 13 421 0 15 -6 26 -6 30 0 10 16 326 4 336 -12 7 -10 9 -10 9 0 0
8 18 11 63 10 57 -1 58 -2 14 -5 -30 -3 -50 -10 -54 -19 -4 -12 -123 -14 -846
-14 -762 0 -965 3 -759 11 68 3 88 11 60 22 -7 3 -5 6 6 6 10 1 25 -7 32 -16
12 -16 13 -16 8 -1 -4 12 1 17 18 20 45 7 523 2 536 -5z m5317 -77 c3 -5 -4
-11 -17 -14 -66 -13 -87 -14 -90 -4 -3 7 -19 8 -48 3 -40 -7 -42 -9 -25 -21
26 -20 16 -24 -30 -14 -22 5 -99 10 -171 10 -99 0 -135 4 -150 15 -17 13 0 14
156 15 96 1 193 5 215 9 57 12 153 13 160 1z m-2979 -64 c38 -2 110 -7 161
-11 73 -6 96 -5 109 6 15 12 18 12 22 0 3 -8 7 -9 11 -3 3 6 78 13 172 17 146
6 167 5 172 -9 3 -8 1 -19 -6 -23 -13 -8 -883 -13 -960 -5 -29 3 -46 9 -44 16
4 12 18 14 165 16 62 1 102 6 102 12 0 7 5 6 14 -1 8 -6 45 -13 82 -15z m1104
14 c0 -5 -8 -7 -17 -3 -14 5 -15 3 -7 -7 12 -12 58 -5 50 9 -2 3 48 7 112 8
64 1 109 -1 100 -3 -24 -7 -23 -21 2 -29 11 -3 20 -9 20 -13 0 -4 -120 -7
-267 -8 -192 -1 -247 1 -193 7 92 11 115 16 73 18 -31 1 -41 10 -26 24 10 11
153 8 153 -3z m991 0 c22 0 38 -4 34 -9 -6 -11 33 -26 42 -17 4 3 -1 6 -10 6
-9 0 -17 7 -17 15 0 11 12 15 50 15 38 0 50 -4 50 -15 0 -10 11 -16 30 -17 17
-1 44 -2 61 -3 23 -2 33 3 36 16 4 12 12 16 31 12 15 -2 101 -9 192 -14 91 -6
169 -15 175 -20 10 -10 -3 -11 -220 -10 -356 1 -573 4 -607 8 -60 8 -44 22 17
16 45 -5 56 -3 61 11 4 10 13 15 21 12 8 -3 33 -6 54 -6z m-2957 -14 c9 12 23
13 86 4 51 -7 76 -7 78 0 5 14 32 13 33 -2 0 -10 2 -10 6 -1 3 9 10 10 23 3
10 -5 26 -7 35 -4 9 4 20 1 25 -6 6 -9 12 -9 29 -1 25 14 156 10 156 -4 0 -11
-99 -28 -102 -17 -2 4 -105 6 -229 4 -149 -1 -223 1 -219 8 3 5 13 10 21 10 8
0 14 5 14 12 0 8 6 6 17 -4 14 -15 18 -15 27 -2z m1222 -577 c3 -5 -225 -8
-553 -7 -307 0 -535 4 -508 7 83 10 1055 10 1061 0z m4 -184 c0 -13 -69 -15
-560 -15 -363 0 -560 3 -560 10 0 6 196 11 553 13 303 1 555 3 560 5 4 1 7 -5
7 -13z m-13 -191 c3 -9 -1084 -15 -1100 -7 -4 2 -5 7 -3 11 6 10 1101 6 1103
-4z m6 -291 l3 -93 -559 0 c-506 0 -559 2 -553 16 3 9 6 36 6 61 0 39 2 44 18
37 9 -4 29 -7 45 -6 18 1 27 -4 27 -13 0 -9 -10 -15 -26 -15 -22 0 -25 -2 -14
-15 11 -13 8 -15 -14 -15 -14 0 -26 -4 -26 -10 0 -7 182 -10 525 -10 494 0
525 1 524 18 0 10 -3 12 -6 5 -2 -7 -17 -13 -31 -13 -26 1 -26 1 -7 16 19 14
19 15 -3 20 -12 4 -22 11 -22 16 0 5 -13 7 -29 3 -26 -6 -51 8 -38 21 4 5 73
-9 113 -22 16 -5 16 -4 4 5 -13 10 -8 15 13 12 4 0 7 11 8 27 0 15 3 21 6 14
8 -21 23 -3 24 31 2 53 8 8 12 -90z m-2 -371 l3 -93 -267 0 c-147 1 -398 1
-558 1 -190 0 -290 3 -287 10 2 7 194 11 548 13 l545 2 -3 50 c-3 48 5 121 13
114 2 -2 5 -46 6 -97z m-1 -452 c0 -7 -192 -10 -556 -10 -367 0 -553 3 -549
10 4 6 200 10 556 10 359 0 549 -3 549 -10z m1960 -134 c0 -6 5 -5 12 2 17 17
218 17 219 0 0 -10 2 -10 6 0 2 6 12 12 20 12 9 0 13 -6 9 -15 -3 -8 -1 -15 3
-15 5 0 11 4 13 10 2 6 17 5 41 -2 31 -10 40 -9 47 2 4 7 17 11 29 7 12 -3 23
-1 26 3 9 15 64 9 58 -6 -3 -9 2 -14 16 -14 12 0 21 5 21 10 0 7 6 7 19 0 13
-7 22 -7 26 0 11 18 64 11 77 -10 15 -24 40 -27 31 -4 -4 12 -2 15 8 10 8 -3
22 -9 32 -12 9 -4 17 -11 17 -16 0 -31 146 -50 261 -34 53 8 59 6 88 -20 17
-15 31 -30 31 -34 0 -12 -206 -10 -320 4 -78 9 -121 10 -134 4 -22 -12 -226 0
-226 13 0 12 -68 79 -80 79 -13 0 -13 0 10 -45 l20 -40 -32 -8 c-18 -4 -112
-10 -209 -12 l-176 -4 -21 29 c-12 16 -22 33 -22 38 0 5 -9 17 -20 27 -31 28
-25 43 18 47 60 5 82 4 82 -6z m-5960 -8 c0 -7 -10 -19 -22 -27 -13 -8 -44
-32 -71 -54 l-47 -40 -123 2 c-67 2 -131 4 -142 6 -51 6 -95 18 -96 26 -1 5
-2 15 -3 22 -2 13 -34 11 -53 -4 -7 -6 -13 -6 -17 0 -3 5 -25 7 -48 5 -23 -2
-38 -1 -34 4 4 4 15 7 24 8 10 1 37 2 62 4 l45 3 -45 6 -45 7 58 4 c43 4 57 2
57 -8 0 -8 5 -12 11 -10 6 2 10 8 9 13 -2 22 136 38 373 43 82 2 107 0 107
-10z m7317 -64 c17 -8 40 -14 51 -14 12 0 24 -5 27 -11 4 -6 19 -7 36 -4 16 4
29 2 29 -3 0 -16 -55 -22 -190 -22 l-128 0 -31 32 c-19 19 -27 34 -20 37 6 2
15 -2 19 -9 6 -10 15 -11 37 -2 55 22 116 20 170 -4z m-7502 -86 c4 -4 -9 -10
-30 -14 -23 -4 -34 -11 -31 -19 5 -13 -36 -55 -54 -55 -6 0 -10 -4 -10 -10 0
-13 -49 -44 -57 -36 -4 3 1 12 10 19 15 10 4 12 -59 14 -52 2 -83 8 -94 18 -9
8 -20 12 -25 8 -4 -5 -5 -2 -1 5 4 6 2 12 -4 12 -28 0 22 30 52 31 18 1 44 5
58 10 24 8 23 9 -5 5 -16 -2 -55 0 -85 4 -48 6 -43 7 47 9 89 1 102 -1 106
-16 4 -15 5 -15 6 2 1 18 8 20 85 20 46 0 87 -3 91 -7z m7458 2 c26 0 36 -4
31 -11 -4 -7 -1 -10 7 -7 8 3 13 11 11 18 -2 8 3 10 13 6 9 -3 42 -7 73 -8 47
-1 50 -2 17 -5 -22 -3 -44 -9 -50 -15 -7 -6 -5 -9 5 -8 33 5 61 -1 55 -10 -3
-5 3 -10 15 -10 14 0 19 4 14 13 -4 6 -3 8 1 4 23 -21 12 -34 -28 -32 -23 2
-47 -3 -53 -10 -15 -15 -8 -25 18 -25 10 0 18 -4 18 -10 0 -5 -6 -10 -14 -10
-8 0 -16 -5 -18 -11 -4 -12 -58 -1 -58 12 0 5 5 9 11 9 6 0 9 10 7 23 -2 16
-11 23 -30 25 -16 2 -28 8 -28 13 0 5 -13 9 -28 9 -18 0 -37 10 -53 26 l-24
27 25 -6 c14 -4 42 -7 63 -7z"/>
<path d="M4929 5823 c0 -21 -3 -32 -6 -25 -8 21 -23 13 -23 -14 0 -18 -4 -25
-14 -21 -11 5 -14 -7 -13 -59 1 -43 -2 -64 -10 -64 -6 0 -13 6 -15 12 -6 18
-38 -15 -38 -40 0 -32 34 -54 87 -55 l48 -2 0 35 c0 19 -4 35 -10 35 -5 0 -19
6 -30 12 -19 12 -19 12 6 13 20 0 28 6 33 23 9 37 5 187 -5 187 -5 0 -9 -17
-10 -37z"/>
<path d="M4488 527 c-12 -4 -27 -6 -35 -3 -7 3 -15 1 -18 -4 -4 -6 3 -10 14
-10 11 0 23 -4 26 -10 3 -6 -4 -10 -16 -10 -18 0 -20 -3 -11 -12 21 -21 13
-36 -24 -48 -40 -13 -131 -7 -147 9 -7 7 -4 17 8 32 19 20 19 20 -10 13 -24
-5 -28 -4 -18 6 10 11 9 16 -5 26 -25 20 -38 17 -18 -4 15 -18 15 -20 -1 -38
-20 -22 -84 -44 -128 -44 -21 0 -26 -4 -21 -16 3 -9 6 -18 6 -20 0 -2 14 -4
31 -4 17 0 28 4 24 10 -3 6 -1 10 4 10 6 0 11 -7 11 -16 0 -21 48 -16 77 9 12
11 26 16 32 12 6 -3 46 -8 89 -9 43 -2 87 -6 98 -10 17 -5 24 2 42 37 12 25
22 54 22 67 0 18 4 21 23 18 13 -2 28 1 34 8 9 9 3 12 -28 10 -21 0 -49 -5
-61 -9z"/>
</g>
</svg>
